<!--<svg xmlns="http://www.w3.org/2000/svg" viewBox="0 0 841.9 595.3">-->
<!--    <g fill="#61DAFB">-->
<!--        <path d="M666.3 296.5c0-32.5-40.7-63.3-103.1-82.4 14.4-63.6 8-114.2-20.2-130.4-6.5-3.8-14.1-5.6-22.4-5.6v22.3c4.6 0 8.3.9 11.4 2.6 13.6 7.8 19.5 37.5 14.9 75.7-1.1 9.4-2.9 19.3-5.1 29.4-19.6-4.8-41-8.5-63.5-10.9-13.5-18.5-27.5-35.3-41.6-50 32.6-30.3 63.2-46.9 84-46.9V78c-27.5 0-63.5 19.6-99.9 53.6-36.4-33.8-72.4-53.2-99.9-53.2v22.3c20.7 0 51.4 16.5 84 46.6-14 14.7-28 31.4-41.3 49.9-22.6 2.4-44 6.1-63.6 11-2.3-10-4-19.7-5.2-29-4.7-38.2 1.1-67.9 14.6-75.8 3-1.8 6.9-2.6 11.5-2.6V78.5c-8.4 0-16 1.8-22.6 5.6-28.1 16.2-34.4 66.7-19.9 130.1-62.2 19.2-102.7 49.9-102.7 82.3 0 32.5 40.7 63.3 103.1 82.4-14.4 63.6-8 114.2 20.2 130.4 6.5 3.8 14.1 5.6 22.5 5.6 27.5 0 63.5-19.6 99.9-53.6 36.4 33.8 72.4 53.2 99.9 53.2 8.4 0 16-1.8 22.6-5.6 28.1-16.2 34.4-66.7 19.9-130.1 62-19.1 102.5-49.9 102.5-82.3zm-130.2-66.7c-3.7 12.9-8.3 26.2-13.5 39.5-4.1-8-8.4-16-13.1-24-4.6-8-9.5-15.8-14.4-23.4 14.2 2.1 27.9 4.7 41 7.9zm-45.8 106.5c-7.8 13.5-15.8 26.3-24.1 38.2-14.9 1.3-30 2-45.2 2-15.1 0-30.2-.7-45-1.9-8.3-11.9-16.4-24.6-24.2-38-7.6-13.1-14.5-26.4-20.8-39.8 6.2-13.4 13.2-26.8 20.7-39.9 7.8-13.5 15.8-26.3 24.1-38.2 14.9-1.3 30-2 45.2-2 15.1 0 30.2.7 45 1.9 8.3 11.9 16.4 24.6 24.2 38 7.6 13.1 14.5 26.4 20.8 39.8-6.3 13.4-13.2 26.8-20.7 39.9zm32.3-13c5.4 13.4 10 26.8 13.8 39.8-13.1 3.2-26.9 5.9-41.2 8 4.9-7.7 9.8-15.6 14.4-23.7 4.6-8 8.9-16.1 13-24.1zM421.2 430c-9.3-9.6-18.6-20.3-27.8-32 9 .4 18.2.7 27.5.7 9.4 0 18.7-.2 27.8-.7-9 11.7-18.3 22.4-27.5 32zm-74.4-58.9c-14.2-2.1-27.9-4.7-41-7.9 3.7-12.9 8.3-26.2 13.5-39.5 4.1 8 8.4 16 13.1 24 4.7 8 9.5 15.8 14.4 23.4zM420.7 163c9.3 9.6 18.6 20.3 27.8 32-9-.4-18.2-.7-27.5-.7-9.4 0-18.7.2-27.8.7 9-11.7 18.3-22.4 27.5-32zm-74 58.9c-4.9 7.7-9.8 15.6-14.4 23.7-4.6 8-8.9 16-13 24-5.4-13.4-10-26.8-13.8-39.8 13.1-3.1 26.9-5.8 41.2-7.9zm-90.5 125.2c-35.4-15.1-58.3-34.9-58.3-50.6 0-15.7 22.9-35.6 58.3-50.6 8.6-3.7 18-7 27.7-10.1 5.7 19.6 13.2 40 22.5 60.9-9.2 20.8-16.6 41.1-22.2 60.6-9.9-3.1-19.3-6.5-28-10.2zM310 490c-13.6-7.8-19.5-37.5-14.9-75.7 1.1-9.4 2.9-19.3 5.1-29.4 19.6 4.8 41 8.5 63.5 10.9 13.5 18.5 27.5 35.3 41.6 50-32.6 30.3-63.2 46.9-84 46.9-4.5-.1-8.3-1-11.3-2.7zm237.2-76.2c4.7 38.2-1.1 67.9-14.6 75.8-3 1.8-6.9 2.6-11.5 2.6-20.7 0-51.4-16.5-84-46.6 14-14.7 28-31.4 41.3-49.9 22.6-2.4 44-6.1 63.6-11 2.3 10.1 4.1 19.8 5.2 29.1zm38.5-66.7c-8.6 3.7-18 7-27.7 10.1-5.7-19.6-13.2-40-22.5-60.9 9.2-20.8 16.6-41.1 22.2-60.6 9.9 3.1 19.3 6.5 28.1 10.2 35.4 15.1 58.3 34.9 58.3 50.6-.1 15.7-23 35.6-58.4 50.6zM320.8 78.4z"/>-->
<!--        <circle cx="420.9" cy="296.5" r="45.7"/>-->
<!--        <path d="M520.5 78.1z"/>-->
<!--    </g>-->
<!--</svg>-->

<svg width="653.9999999999999" height="191.10149982028426" viewBox="0 0 300 87.66123844967169" class="css-1j8o68f">
<defs id="SvgjsDefs3810">
    <linearGradient id="SvgjsLinearGradient3815">
        <stop id="SvgjsStop3816" stopColor="#8f5e25" offset="0"></stop>
        <stop id="SvgjsStop3817" stopColor="#fbf4a1" offset="0.5"></stop>
        <stop id="SvgjsStop3818" stopColor="#8f5e25" offset="1"></stop>
    </linearGradient>
    <linearGradient id="SvgjsLinearGradient3819">
        <stop id="SvgjsStop3820" stopColor="#8f5e25" offset="0"></stop>
        <stop id="SvgjsStop3821" stopColor="#fbf4a1" offset="0.5"></stop>
        <stop id="SvgjsStop3822" stopColor="#8f5e25" offset="1"></stop>
    </linearGradient>
</defs>
<g id="SvgjsG3811" featurekey="symbolFeature-0"
   transform="matrix(0.865484130433078,0,0,0.865484130433078,-3.2726287886947985,0.15295095491431)"
   fill="url(#SvgjsLinearGradient3815)">
    <path xmlns="http://www.w3.org/2000/svg"
          d="M84.339,42.163c-2.081-0.54-4.184-0.642-6.27-0.357c-2.042-8.993-9.974-15.408-19.321-15.408  c-7.359,0-14.151,4.15-17.56,10.634c-0.354-0.029-0.709-0.047-1.061-0.047c-6.815,0-12.404,5.301-12.893,11.993  c-3.359,0.849-7.259,0.228-11.046-0.394C13.778,48.19,11.288,47.781,9,47.781c-1.588,0-2.723,0.433-3.819,0.85l-0.597,0.224  c-0.633,0.23-0.959,0.929-0.729,1.562c0.23,0.632,0.927,0.96,1.562,0.729c0.216-0.079,0.425-0.158,0.632-0.237  C7.061,50.522,7.86,50.219,9,50.219c2.09,0,4.374,0.374,6.793,0.771c2.589,0.425,5.229,0.858,7.804,0.858  c1.252,0,2.485-0.111,3.691-0.367c0.139,1.153,0.428,2.26,0.851,3.3H11c-0.673,0-1.219,0.546-1.219,1.219s0.546,1.219,1.219,1.219  h18.444c0.654,0.955,1.435,1.815,2.314,2.563H16c-0.673,0-1.219,0.546-1.219,1.219s0.546,1.219,1.219,1.219h20  c0.023,0,0.041-0.012,0.064-0.013c1.28,0.425,2.643,0.663,4.063,0.663c0.673,0,1.219-0.546,1.219-1.219s-0.546-1.219-1.219-1.219  c-5.792,0-10.504-4.712-10.504-10.504c0-5.793,4.712-10.505,10.504-10.505c0.523,0,1.054,0.039,1.576,0.118c0,0,0,0,0.001,0  c2.813,0.423,5.371,2.008,7.019,4.347c0.237,0.337,0.614,0.518,0.997,0.518c0.242,0,0.487-0.072,0.7-0.223  c0.551-0.388,0.683-1.147,0.295-1.697c-1.704-2.42-4.2-4.184-7.01-4.995c3.096-5.304,8.844-8.654,15.043-8.654  c8.556,0,15.775,6.117,17.166,14.547c0.158,0.956,0.237,1.916,0.237,2.855c0,0.673,0.546,1.219,1.219,1.219s1.219-0.546,1.219-1.219  c0-0.678-0.037-1.365-0.109-2.054c1.745-0.228,3.503-0.115,5.246,0.337c5.124,1.333,9.101,5.739,9.895,10.964  c0.61,4.024-0.493,7.916-3.108,10.958c-2.579,3-6.325,4.721-10.277,4.721c-0.035,0-0.071,0.002-0.106,0.005  c-1.067,0.094-2.124,0.247-3.03,0.383c-8.156,1.227-16.525,0.313-24.62-0.57C50.271,70.74,48.066,70.5,45.86,70.3  c-0.037-0.004-0.073-0.006-0.11-0.006c-1.446,0-2.936-0.058-4.513-0.12c-4.979-0.195-10.131-0.397-14.873,1.183  c-0.638,0.213-0.982,0.903-0.771,1.542c0.214,0.638,0.904,0.98,1.542,0.771c4.318-1.44,9.244-1.248,14.006-1.061  c1.582,0.063,3.077,0.121,4.553,0.123c2.173,0.198,4.346,0.436,6.519,0.672c5.352,0.584,10.818,1.181,16.312,1.181  c2.976,0,5.96-0.175,8.935-0.622c0.855-0.129,1.849-0.272,2.83-0.361c4.644-0.016,9.04-2.043,12.07-5.568  c3.041-3.537,4.378-8.243,3.669-12.912C95.091,48.944,90.393,43.738,84.339,42.163z"></path>
    <path xmlns="http://www.w3.org/2000/svg"
          d="M40.888,67.213c2.285,0.211,4.557,0.468,6.754,0.716c5.188,0.586,10.204,1.151,15.319,1.151  c3.35,0,6.743-0.242,10.257-0.882c0.662-0.12,1.102-0.754,0.98-1.416c-0.12-0.663-0.759-1.105-1.416-0.98  c-8.528,1.549-16.466,0.654-24.867-0.295c-2.209-0.249-4.494-0.507-6.803-0.72c-6.186-0.572-13.303-1.009-19.498,1.057  c-0.638,0.213-0.982,0.903-0.771,1.542c0.214,0.638,0.903,0.981,1.542,0.771C28.132,66.239,34.95,66.666,40.888,67.213z"></path>
</g>
<g id="SvgjsG3812" featurekey="nameFeature-0"
   transform="matrix(3.0741537088581397,0,0,3.0741537088581397,92.7947983284383,-36.145334631899345)"
   fill="url(#SvgjsLinearGradient3819)">
    <path d="M2.3438 12.050999999999998 l0 27.949 l4.2383 0 l0 -11.895 l7.7344 0 l0 -4.2383 l-7.7344 0 l0 -7.5781 l10.02 0 l0 -4.2383 l-14.258 0 z M24.27735 12.09 l-4.2383 0 l0 27.91 l4.2383 0 l0 -27.91 z M36.3477 40.25391 c-1.849 -0.078125 -3.5547 -0.57291 -5.1172 -1.4844 c-1.7708 -1.0287 -2.9752 -2.4088 -3.6133 -4.1406 l3.9844 -1.4648 c0.32553 0.85938 0.99609 1.556 2.0117 2.0898 c0.89844 0.45572 1.875 0.70963 2.9297 0.76172 c1.6276 0.065098 2.9752 -0.33203 4.043 -1.1914 c0.89844 -0.72916 1.3737 -1.5625 1.4258 -2.5 c0.078125 -1.7838 -1.7904 -3.2096 -5.6055 -4.2773 c-5.9766 -1.6797 -8.8736 -4.5248 -8.6914 -8.5352 c0.11719 -2.8125 1.3216 -4.9154 3.6133 -6.3086 c1.7448 -1.0677 3.8412 -1.543 6.2891 -1.4258 c2.9688 0.13021 5.3516 1.1654 7.1484 3.1055 l-3.1055 2.8906 c-1.0156 -1.0938 -2.4283 -1.6797 -4.2383 -1.7578 c-1.276 -0.05209 -2.3633 0.11066 -3.2617 0.48826 c-1.4063 0.59896 -2.142 1.6667 -2.207 3.2031 c-0.078125 1.7578 1.7904 3.1705 5.6055 4.2383 c3.4375 0.96354 5.8725 2.3828 7.3047 4.2578 c0.98959 1.3021 1.4518 2.7408 1.3867 4.3164 c-0.10416 2.2135 -1.1068 4.0885 -3.0078 5.625 c-1.7708 1.4193 -3.8932 2.1289 -6.3672 2.1289 c-0.18229 0 -0.35807 -0.0065041 -0.52734 -0.019531 z M55.58595625 33.0859 c-1.9531 -1.9531 -2.9297 -4.31 -2.9297 -7.0703 s0.97656 -5.1172 2.9297 -7.0703 c1.9531 -1.9662 4.31 -2.9492 7.0703 -2.9492 c1.6927 0 3.2748 0.40365 4.7461 1.2109 l0 -4.6484 c-1.5365 -0.53385 -3.1186 -0.80078 -4.7461 -0.80078 c-3.9322 0 -7.2916 1.3932 -10.078 4.1797 s-4.1797 6.1459 -4.1797 10.078 s1.3932 7.2916 4.1797 10.078 s6.1459 4.1797 10.078 4.1797 c1.6276 0 3.2096 -0.27344 4.7461 -0.82031 l0 -4.6289 c-1.4713 0.79428 -3.0533 1.1914 -4.7461 1.1914 c-2.7604 0 -5.1172 -0.97656 -7.0703 -2.9297 z"></path>
</g>
</svg>